# xmcd CD database file
#
# Track frame offsets:
#	150
#	11275
#	22162
#	30707
#	47587
#	59012
#	72095
#	78200
#	89025
#	102610
#	120197
#	140305
#	149325
#	156709
#	167375
#	182745
#	189045
#	211470
#	228505
#	234247
#	251212
#	272337
#	284352
#
# Disc length: 3935 seconds
#
# Revision: 0
# Processed by: cddbd v1.5.1PL0 Copyright (c) Steve Scherf et al.
# Submitted via: CDex 1.51
#
DISCID=400f5d17
DTITLE=Die Rhöner Säuwäntzt - Blues von den Baumwollfeldern der Rhön
DYEAR=1995
DGENRE=Blues
TTITLE0=Leo
TTITLE1=Beröm de Blues eichentlich uis de Rhön kömmt
TTITLE2=Bos en Pödschedäppo is
TTITLE3=Es Lied vom Pödschedäppo
TTITLE4=Be mo in de Rhön a Frau ohmacht
TTITLE5=He Du bo kömmsten du du hä
TTITLE6=De Fraue im reionale Vergleich
TTITLE7=Ich well doch nur mi Roh
TTITLE8=Ich hons doch überhaupt goarnet mit Absicht gemoacht
TTITLE9=Dos macht mo goar nüscht uis
TTITLE10=Hä u hi u hi u hä
TTITLE11=Bauf dich do laiste
TTITLE12=Modische Anpassungsschwierichkeide
TTITLE13=De langärmelich Öngerhoos
TTITLE14=Du konnst mich emo schö om Oarsch geleck
TTITLE15=Rhöner Landwirtschaftsgeschichte
TTITLE16=Im Cannabisfeld do schdett e Koh
TTITLE17=Ich senn en Bauo
TTITLE18=Be en Bauo emo romandisch sei wollt
TTITLE19=Auche be e Koh
TTITLE20=Bann de Mond uffget hänger de Wasserkupp
TTITLE21=Drei Säuwäntzt in Frankfurt
TTITLE22=Stoodtschisso Lied
EXTD=YEAR: 1995
EXTT0=
EXTT1=
EXTT2=
EXTT3=
EXTT4=
EXTT5=
EXTT6=
EXTT7=
EXTT8=
EXTT9=
EXTT10=
EXTT11=
EXTT12=
EXTT13=
EXTT14=
EXTT15=
EXTT16=
EXTT17=
EXTT18=
EXTT19=
EXTT20=
EXTT21=
EXTT22=
PLAYORDER=
